HIERARCHY
ROOT Hips
{
 OFFSET 0.000000 0.000000 0.000000
 CHANNELS 6 Xposition Yposition Zposition Yrotation Xrotation Zrotation
 JOINT Chest
 {
  OFFSET 0.000000 9.588913 -0.003946
  CHANNELS 3 Yrotation Xrotation Zrotation
  JOINT Chest2
  {
   OFFSET 0.000000 9.541882 0.008053
   CHANNELS 3 Yrotation Xrotation Zrotation
   JOINT Chest3
   {
    OFFSET 0.000000 9.501360 0.000000
    CHANNELS 3 Yrotation Xrotation Zrotation
    JOINT Chest4
    {
     OFFSET 0.000000 9.491660 0.000000
     CHANNELS 3 Yrotation Xrotation Zrotation
     JOINT Neck
     {
      OFFSET 0.000000 14.331917 0.000000
      CHANNELS 3 Yrotation Xrotation Zrotation
      JOINT Head
      {
       OFFSET 0.000000 8.884799 0.017034
       CHANNELS 3 Yrotation Xrotation Zrotation
       End Site
       {
        OFFSET 0.000000 16.896195 0.008993
       }
      }
     }
     JOINT RightCollar
     {
      OFFSET -2.923010 9.499495 0.000000
      CHANNELS 3 Yrotation Xrotation Zrotation
      JOINT RightShoulder
      {
       OFFSET -13.795216 0.000000 0.000000
       CHANNELS 3 Yrotation Xrotation Zrotation
       JOINT RightElbow
       {
        OFFSET -30.272209 0.000000 0.000000
        CHANNELS 3 Yrotation Xrotation Zrotation
        JOINT RightWrist
        {
         OFFSET -24.478199 0.000000 0.000000
         CHANNELS 3 Yrotation Xrotation Zrotation
         End Site
         {
          OFFSET -18.090752 0.000000 0.000000
         }
        }
       }
      }
     }
     JOINT LeftCollar
     {
      OFFSET 2.923010 9.499495 0.000000
      CHANNELS 3 Yrotation Xrotation Zrotation
      JOINT LeftShoulder
      {
       OFFSET 13.795216 0.000000 0.000000
       CHANNELS 3 Yrotation Xrotation Zrotation
       JOINT LeftElbow
       {
        OFFSET 30.272209 0.000000 0.000000
        CHANNELS 3 Yrotation Xrotation Zrotation
        JOINT LeftWrist
        {
         OFFSET 24.478199 0.000000 0.000000
         CHANNELS 3 Yrotation Xrotation Zrotation
         End Site
         {
          OFFSET 18.090752 0.000000 0.000000
         }
        }
       }
      }
     }
    }
   }
  }
 }
 JOINT RightHip
 {
  OFFSET -7.826875 0.019532 0.001973
  CHANNELS 3 Yrotation Xrotation Zrotation
  JOINT RightKnee
  {
   OFFSET 0.000000 -40.546152 -0.001885
   CHANNELS 3 Yrotation Xrotation Zrotation
   JOINT RightAnkle
   {
    OFFSET 0.000000 -39.417092 -0.003189
    CHANNELS 3 Yrotation Xrotation Zrotation
    JOINT RightToe
    {
     OFFSET 0.000000 -7.579396 17.243563
     CHANNELS 3 Yrotation Xrotation Zrotation
     End Site
     {
      OFFSET 0.000000 -1.500329 6.694466
     }
    }
   }
  }
 }
 JOINT LeftHip
 {
  OFFSET 7.826875 0.019532 0.001973
  CHANNELS 3 Yrotation Xrotation Zrotation
  JOINT LeftKnee
  {
   OFFSET 0.000000 -40.546152 -0.001885
   CHANNELS 3 Yrotation Xrotation Zrotation
   JOINT LeftAnkle
   {
    OFFSET 0.000000 -39.417092 -0.003189
    CHANNELS 3 Yrotation Xrotation Zrotation
    JOINT LeftToe
    {
     OFFSET 0.000000 -7.579396 17.243563
     CHANNELS 3 Yrotation Xrotation Zrotation
     End Site
     {
      OFFSET 0.000000 -1.500329 6.694466
     }
    }
   }
  }
 }
}
MOTION
Frames: 7
Frame Time: 0.008333
0.000000 87.345680 0.000000 0.000000 -5.767889 0.000000 0.000000 11.653876 0.000000 0.000000 -5.885988 0.000000 0.000000 -0.000000 0.000000 0.000000 -0.000000 0.000000 0.000000 12.528808 0.000000 0.000000 0.711711 0.000000 0.000000 -0.000000 0.000000 0.000000 -0.000000 0.000000 2.309063 -0.000000 0.000000 -2.309063 -0.000000 -0.000000 0.000000 -0.000000 0.000000 0.000000 0.000000 0.000000 -2.309063 0.000000 0.000000 2.309063 -0.000000 0.000000 0.000000 8.520374 0.000000 0.000000 1.905768 0.000000 -0.000000 -4.658254 0.000000 0.000000 -0.000000 0.000000 0.000000 8.520374 0.000000 0.000000 1.905768 0.000000 -0.000000 -4.658254 0.000000 0.000000 -0.000000 0.000000
-15.160732 88.165147 -41.274219 143.899258 -4.165851 -2.225405 -0.633069 3.049157 -0.839178 -0.375852 1.826753 -0.084394 -0.470295 2.283351 -0.107379 -0.375852 1.826753 -0.084394 -1.692248 25.393620 -0.868494 -2.826521 11.359835 -1.163761 8.241397 0.827905 -0.075133 -18.413944 -2.539395 90.652665 7.397224 -25.338152 -0.384917 9.688222 -8.714272 -1.142585 2.486207 -0.101005 -2.535849 8.412222 -4.347745 -87.615596 -5.572589 -9.027989 -5.788529 -11.864300 -0.758733 3.545120 -25.373374 6.247200 -17.187540 -5.549237 -0.262245 -0.777213 -11.620283 11.973976 4.869444 0.057135 -1.107748 0.085167 -11.589223 11.581987 0.942609 11.068521 -1.425567 -2.115996 -3.820356 -6.852644 1.930202 0.224656 1.027594 0.148775
-15.174069 88.165083 -41.299210 143.851519 -4.182907 -2.248257 -0.644319 3.056385 -0.845203 -0.381645 1.829646 -0.086931 -0.477552 2.286964 -0.110583 -0.381645 1.829646 -0.086931 -1.670457 25.391226 -0.868507 -2.787539 11.355295 -1.168755 8.243951 0.830465 -0.088618 -18.268527 -2.584318 90.724575 7.399982 -25.198518 -0.400619 9.901763 -8.683700 -1.243302 2.521734 -0.071277 -2.521612 8.432117 -4.348733 -87.735878 -5.209639 -10.019679 -5.923647 -11.890234 -1.330861 3.659811 -25.347228 6.228843 -17.178786 -5.574702 -0.216876 -0.788139 -11.620513 12.004885 4.871526 0.051017 -1.105359 0.077155 -11.597403 11.620629 0.941017 11.107111 -1.439141 -2.132595 -3.799054 -6.857520 1.944465 0.221407 1.028784 0.148302
-15.190266 88.164867 -41.327315 143.798571 -4.195750 -2.273267 -0.654919 3.060601 -0.850486 -0.386394 1.832255 -0.089406 -0.483502 2.290222 -0.113704 -0.386394 1.832255 -0.089406 -1.650131 25.385352 -0.867562 -2.751386 11.344321 -1.171642 8.246768 0.827486 -0.099742 -18.129881 -2.637121 90.787807 7.394467 -25.086064 -0.415145 10.075086 -8.655220 -1.326397 2.545637 -0.044455 -2.512078 8.478605 -4.340757 -87.854589 -4.851224 -11.042904 -6.070727 -11.907862 -1.903640 3.777426 -25.315749 6.204613 -17.166959 -5.603824 -0.169803 -0.802397 -11.618004 12.042375 4.871960 0.046446 -1.106146 0.074474 -11.603674 11.653448 0.937464 11.147234 -1.448396 -2.144679 -3.775770 -6.866744 1.958433 0.220186 1.029914 0.148614
-15.208812 88.164469 -41.358066 143.750990 -4.204582 -2.296770 -0.665746 3.063515 -0.856998 -0.391840 1.834377 -0.091742 -0.490323 2.292869 -0.116653 -0.391840 1.834377 -0.091742 -1.633563 25.375389 -0.865417 -2.722215 11.325790 -1.171452 8.246885 0.820775 -0.111183 -18.009802 -2.698950 90.843776 7.379107 -24.993341 -0.424669 10.208268 -8.630995 -1.391454 2.557991 -0.020625 -2.509009 8.548904 -4.324447 -87.975946 -4.511104 -12.051787 -6.218383 -11.928455 -2.453237 3.895995 -25.294308 6.177418 -17.158567 -5.625013 -0.128312 -0.817386 -11.614684 12.086336 4.867117 0.043823 -1.109526 0.079018 -11.611381 11.680172 0.931230 11.188190 -1.454937 -2.152979 -3.764081 -6.877357 1.970564 0.216874 1.030362 0.149616
-15.228304 88.163900 -41.390417 143.709079 -4.209603 -2.320635 -0.676647 3.065683 -0.863163 -0.398038 1.835535 -0.093658 -0.498080 2.294313 -0.119081 -0.398038 1.835535 -0.093658 -1.621097 25.362182 -0.862494 -2.700548 11.301262 -1.168877 8.245816 0.811759 -0.122955 -17.917007 -2.769985 90.890905 7.352361 -24.907485 -0.425038 10.300870 -8.602228 -1.447645 2.562671 -0.000449 -2.513199 8.639030 -4.300105 -88.101133 -4.198632 -13.004889 -6.354275 -11.965650 -2.959752 4.011558 -25.285293 6.148842 -17.151907 -5.636152 -0.093549 -0.830931 -11.611494 12.135338 4.856674 0.041976 -1.114732 0.087721 -11.610838 11.701966 0.927200 11.224471 -1.459451 -2.160457 -3.761405 -6.889426 1.981534 0.213794 1.030637 0.151453
-15.247337 88.163185 -41.423491 143.667223 -4.211245 -2.347026 -0.687668 3.067257 -0.867490 -0.403709 1.835591 -0.095386 -0.505179 2.294380 -0.121270 -0.403709 1.835591 -0.095386 -1.611657 25.346320 -0.859042 -2.684406 11.271823 -1.164617 8.248223 0.801169 -0.133169 -17.852573 -2.848903 90.927376 7.315971 -24.817975 -0.415499 10.351749 -8.559829 -1.505497 2.563050 0.015950 -2.521484 8.742747 -4.266857 -88.228692 -3.921972 -13.866331 -6.473998 -12.030174 -3.417093 4.129996 -25.282699 6.118263 -17.141009 -5.643053 -0.062961 -0.843267 -11.615742 12.187393 4.840640 0.038276 -1.118409 0.095661 -11.591909 11.721577 0.928548 11.253440 -1.464815 -2.166887 -3.765964 -6.902077 1.992230 0.213451 1.030929 0.152871
